<svg xmlns="http://www.w3.org/2000/svg" viewBox="0 0 24 24" id="shirt">
  <g>
    <path fill="#5a4ef6" d="M12 5a4.152 4.152 0 0 1-3.579-2.576 1 1 0 0 1 1.812-.848A2.277 2.277 0 0 0 12 3a2.277 2.277 0 0 0 1.767-1.424 1 1 0 0 1 1.812.848A4.152 4.152 0 0 1 12 5Z"></path>
    <path fill="#231f20" d="M23 8.374V10a1 1 0 0 1-.757.97L19 11.781V18a5.006 5.006 0 0 1-5 5h-4a5.006 5.006 0 0 1-5-5v-6.219l-3.243-.811A1 1 0 0 1 1 10V8.374a4.998 4.998 0 0 1 2.604-4.39l1.917-1.046a1 1 0 1 1 .958 1.756L4.562 5.74A2.999 2.999 0 0 0 3 8.374v.845l2 .5V8a1 1 0 0 1 2 0v10a3.003 3.003 0 0 0 3 3h4a3.003 3.003 0 0 0 3-3V8a1 1 0 0 1 2 0v1.72l2-.501v-.845a2.999 2.999 0 0 0-1.563-2.634l-1.916-1.046a1 1 0 1 1 .958-1.755l1.917 1.045A4.998 4.998 0 0 1 23 8.374Z"></path>
  </g>
</svg>
